<?xml version="1.0" encoding="utf-8"?>
<!-- Generator: Adobe Illustrator 24.2.0, SVG Export Plug-In . SVG Version: 6.00 Build 0)  -->
<svg version="1.1" id="Laag_1" xmlns="http://www.w3.org/2000/svg" xmlns:xlink="http://www.w3.org/1999/xlink" x="0px" y="0px"
	 viewBox="0 0 33.26 33.52" style="enable-background:new 0 0 33.26 33.52;" xml:space="preserve">
<style type="text/css">
	.st0{fill:#BB3A2A;}
</style>
<g>
	<g>
		<path class="st0" d="M25.63,8.89c0.02,0.08,0.05,0.16,0.07,0.24c0.02,0.1,0.08,0.18,0.16,0.24c1.59,1.15,2.63,2.96,2.63,4.98
			c0,1.3-0.42,2.54-1.23,3.62c-0.11,0.15-0.15,0.33-0.08,0.5l0.96,2.63l-2.96-1.04c-0.15-0.1-0.33-0.11-0.5-0.03
			c-0.94,0.43-1.94,0.65-2.97,0.65c-0.82,0-1.6-0.14-2.32-0.39c-0.1-0.03-0.21-0.04-0.31-0.01l-0.02,0.01
			c-0.49,0.14-0.51,0.83-0.02,1c0.84,0.28,1.74,0.45,2.68,0.45c1.11,0,2.18-0.22,3.2-0.65l3.93,1.39c0.06,0.02,0.11,0.03,0.17,0.03
			c0.14,0,0.28-0.06,0.37-0.15c0.15-0.15,0.19-0.36,0.12-0.55l-1.24-3.41c0.84-1.2,1.28-2.58,1.28-4.02c0-2.45-1.28-4.63-3.25-5.97
			C25.94,8.15,25.51,8.5,25.63,8.89z"/>
		<path class="st0" d="M10.27,18.96c0.09,0.04,0.18,0.07,0.27,0.11c1.19,0.47,2.45,0.72,3.75,0.72c1.07,0,2.11-0.17,3.07-0.47
			c3.85-1.21,6.63-4.63,6.63-8.66c0-1.4-0.34-2.73-0.94-3.92c-0.94-1.86-2.54-3.37-4.5-4.28c-1.28-0.59-2.73-0.93-4.26-0.93
			c-5.35,0-9.7,4.1-9.7,9.13c0,1.8,0.56,3.54,1.62,5.03l-1.58,4.36c-0.07,0.19-0.02,0.41,0.12,0.55c0.1,0.1,0.24,0.15,0.37,0.15
			c0.06,0,0.11-0.01,0.17-0.03l1.3-0.46l1.6-0.56L10.27,18.96z M5.97,19.35l1.3-3.58c0.06-0.17,0.03-0.36-0.07-0.5
			c-1.03-1.37-1.58-2.97-1.58-4.63c0-4.45,3.88-8.08,8.66-8.08s8.66,3.62,8.66,8.08s-3.88,8.08-8.66,8.08
			c-1.32,0-2.59-0.28-3.8-0.83c-0.16-0.07-0.34-0.06-0.48,0.03L5.97,19.35z"/>
		<circle class="st0" cx="9.62" cy="10.64" r="1.19"/>
		<circle class="st0" cx="14.27" cy="10.64" r="1.19"/>
		<circle class="st0" cx="18.93" cy="10.64" r="1.19"/>
		<path class="st0" d="M9.23,22.42c-1.86,0-3.37,1.51-3.37,3.37c0,1.86,1.51,3.37,3.37,3.37c1.86,0,3.37-1.51,3.37-3.37
			C12.61,23.93,11.1,22.42,9.23,22.42z M9.23,28.11c-1.28,0-2.32-1.04-2.32-2.32c0-1.28,1.04-2.32,2.32-2.32
			c1.28,0,2.32,1.04,2.32,2.32C11.56,27.07,10.51,28.11,9.23,28.11z"/>
		<path class="st0" d="M8.13,30.76h2.21c1.23,0,2.25,0.92,2.41,2.1h1.06c-0.17-1.76-1.67-3.15-3.48-3.15h-2.2
			c-1.81,0-3.3,1.38-3.48,3.15h1.06C5.88,31.67,6.89,30.76,8.13,30.76z"/>
		<path class="st0" d="M21.55,25.99c0,1.86,1.51,3.37,3.37,3.37c1.86,0,3.37-1.51,3.37-3.37c0-1.86-1.51-3.37-3.37-3.37
			C23.06,22.61,21.55,24.12,21.55,25.99z M27.24,25.99c0,1.28-1.04,2.32-2.32,2.32c-1.28,0-2.32-1.04-2.32-2.32s1.04-2.32,2.32-2.32
			C26.2,23.66,27.24,24.7,27.24,25.99z"/>
		<path class="st0" d="M23.81,30.96h2.21c1.16,0,2.14,0.81,2.38,1.9h1.06c-0.26-1.67-1.71-2.95-3.45-2.95h-2.21
			c-1.74,0-3.19,1.28-3.45,2.95h1.06C21.68,31.77,22.65,30.96,23.81,30.96z"/>
	</g>
</g>
</svg>
