<?xml version="1.0" encoding="utf-8"?>
<!-- Generator: Adobe Illustrator 24.2.0, SVG Export Plug-In . SVG Version: 6.00 Build 0)  -->
<svg version="1.1" id="Laag_1" xmlns="http://www.w3.org/2000/svg" xmlns:xlink="http://www.w3.org/1999/xlink" x="0px" y="0px"
	 viewBox="0 0 33.26 33.52" style="enable-background:new 0 0 33.26 33.52;" xml:space="preserve">
<style type="text/css">
	.st0{fill:#BB3A2A;}
</style>
<g transform="translate(50 50) scale(0.69 0.69) rotate(15) translate(-50 -50)">
	<path class="st0" d="M-15.98,27.27l0,7.42c0,3.46,2.91,6.28,6.5,6.28c3.59,0,6.5-2.82,6.5-6.28l0-7.38
		c4.98-2.4,8.09-7.28,8.09-12.59c0-3.81-1.56-7.38-4.38-10.04c-2.94-2.78-7-4.23-11.12-3.99c-3.66,0.21-7.11,1.78-9.67,4.4
		c-2.57,2.63-4,6.03-4.01,9.58C-24.09,20.05-20.96,24.93-15.98,27.27z M-4.6,30.28l0,2.74h-9.75l0-2.74L-4.6,30.28z M-9.48,39.3
		c-2.69,0-4.88-2.01-4.88-4.65l9.76,0C-4.6,37.29-6.78,39.3-9.48,39.3z M-18.9,6.23c2.28-2.33,5.35-3.72,8.61-3.91
		c0.27-0.02,0.53-0.02,0.8-0.02c3.4,0,6.69,1.28,9.12,3.57c2.5,2.36,3.88,5.5,3.88,8.86c0,4.83-2.99,9.28-7.61,11.32
		c-0.29,0.13-0.49,0.42-0.49,0.74l0,1.86l-4.06,0l0-4.36l2.81-5.43c2.32,0.66,4.73-0.69,5.39-3.01c0.14-0.48,0.19-0.98,0.16-1.47
		l-0.37-5.76V8.61c0-0.03-0.01-0.05-0.01-0.08c0-0.01,0-0.01,0-0.02c-0.01-0.03-0.01-0.06-0.02-0.09c0-0.01,0-0.01-0.01-0.02
		c-0.01-0.02-0.02-0.05-0.03-0.07c0-0.01-0.01-0.02-0.01-0.03C-0.77,8.28-0.79,8.26-0.8,8.24c0-0.01-0.01-0.01-0.01-0.02
		c-0.02-0.03-0.04-0.05-0.06-0.08l0,0c-0.02-0.02-0.04-0.05-0.06-0.07c-0.01-0.01-0.01-0.01-0.02-0.02
		c-0.02-0.02-0.04-0.03-0.06-0.04C-1.02,8-1.03,8-1.03,7.99C-1.05,7.98-1.07,7.96-1.1,7.95l-0.01-0.01l0,0l0,0
		C-1.14,7.93-1.17,7.91-1.19,7.9c-0.01,0-0.01,0-0.02-0.01c-0.02-0.01-0.05-0.02-0.07-0.02c-0.01,0-0.02,0-0.02-0.01
		c-0.02-0.01-0.05-0.01-0.07-0.01c-0.01,0-0.01,0-0.02,0c-0.06-0.01-0.13,0-0.19,0c-0.01,0-0.02,0-0.03,0
		c-0.02,0-0.05,0.01-0.07,0.01c-0.01,0-0.02,0-0.03,0.01C-1.74,7.88-1.77,7.89-1.79,7.9c0,0,0,0-0.01,0
		c-0.03,0.01-0.06,0.03-0.08,0.04h-0.01l-4.99,2.92c-1.74,1.03-2.55,3.12-1.96,5.05l0,0c0.27,0.87,0.81,1.64,1.54,2.19l-2.9,5.59
		c-0.01,0.01-0.01,0.03-0.02,0.04l-0.41-0.76c1.87-1.52,2.14-4.27,0.62-6.14c-0.33-0.4-0.73-0.74-1.18-1.01l-4.99-2.92
		c0,0-0.01,0-0.01-0.01c-0.02-0.01-0.04-0.02-0.07-0.03c-0.01,0-0.01-0.01-0.02-0.01c-0.02,0.03-0.05,0.02-0.08,0.01
		c-0.01,0-0.02,0-0.03-0.01c-0.02-0.01-0.04-0.01-0.07-0.01c-0.01,0-0.02,0-0.03,0c-0.02,0-0.05,0-0.07-0.01c-0.01,0-0.01,0-0.02,0
		c-0.03,0-0.06,0-0.09,0h-0.01c-0.03,0-0.05,0.01-0.08,0.01c-0.01,0-0.02,0-0.03,0.01c-0.02,0.01-0.04,0.01-0.07,0.02
		c-0.01,0-0.02,0.01-0.03,0.01c-0.03,0.01-0.05,0.02-0.08,0.03h-0.01l0,0l0,0c-0.03,0.02-0.05,0.03-0.08,0.05
		c-0.01,0-0.01,0.01-0.02,0.01c-0.02,0.01-0.04,0.03-0.06,0.05c-0.01,0.01-0.01,0.01-0.02,0.02c-0.02,0.02-0.04,0.04-0.05,0.06
		l-0.01,0.01c-0.02,0.02-0.04,0.05-0.06,0.08c0,0,0,0,0,0.01c-0.02,0.02-0.03,0.05-0.04,0.07c0,0.01-0.01,0.02-0.01,0.03
		c-0.01,0.02-0.02,0.04-0.03,0.06c0,0.02,0,0.03,0,0.04c-0.01,0.03-0.02,0.06-0.02,0.09c0,0,0,0,0,0.01
		c-0.01,0.03-0.01,0.06-0.01,0.09v0.01l-0.37,5.76c-0.16,2.41,1.67,4.49,4.08,4.65c0.09,0.01,0.18,0.01,0.27,0.01
		c0.46,0,0.92-0.07,1.36-0.22l1.77,3.28l0,1.59h-4.06v-1.91c0-0.33-0.2-0.62-0.5-0.75c-4.63-1.98-7.61-6.42-7.6-11.31
		C-22.43,11.55-21.18,8.55-18.9,6.23L-18.9,6.23z M-7.3,15.46c-0.37-1.22,0.13-2.53,1.23-3.17l2.56-1.5l-3.03,5.87
		C-6.89,16.33-7.15,15.92-7.3,15.46L-7.3,15.46z M-2.11,11.63l0.18,2.85c0.1,1.51-1.05,2.82-2.56,2.91c-0.2,0.01-0.4,0-0.59-0.03
		L-2.11,11.63z M-10.78,20.44c-0.13,0.41-0.35,0.78-0.65,1.09l-3.08-5.73l2.5,1.46C-10.92,17.91-10.41,19.22-10.78,20.44z
		 M-16.15,19.46l0.19-2.93l3.11,5.79c-0.45,0.1-0.92,0.07-1.36-0.06l0,0C-15.44,21.89-16.24,20.73-16.15,19.46z"/>
	<path class="st0" d="M-9.48-1.23c0.45,0,0.81-0.36,0.81-0.81l0-6.2c0-0.45-0.36-0.81-0.81-0.81c-0.45,0-0.81,0.36-0.81,0.81l0,6.2
		C-10.29-1.6-9.93-1.23-9.48-1.23z"/>
	<path class="st0" d="M-27.13,14.13l-6.45,0c-0.45,0-0.81,0.36-0.81,0.81c0,0.45,0.36,0.81,0.81,0.81l6.45,0
		c0.45,0,0.81-0.36,0.81-0.81C-26.32,14.49-26.69,14.13-27.13,14.13z"/>
	<path class="st0" d="M14.64,14.13l-6.45,0c-0.45,0-0.81,0.36-0.81,0.81c0,0.45,0.36,0.81,0.81,0.81l6.45,0
		c0.45,0,0.81-0.36,0.81-0.81C15.45,14.49,15.08,14.13,14.64,14.13z"/>
	<path class="st0" d="M-22.48,3.51c0.33,0.31,0.84,0.3,1.15-0.03c0.31-0.33,0.3-0.84-0.03-1.15l-4.6-4.37
		c-0.33-0.31-0.84-0.3-1.15,0.03s-0.3,0.84,0.03,1.15L-22.48,3.51z"/>
	<path class="st0" d="M2.97,3.73c0.21,0,0.41-0.08,0.56-0.22l4.6-4.37c0.33-0.31,0.34-0.82,0.03-1.15C7.85-2.34,7.34-2.35,7.01-2.04
		l-4.6,4.37C2.08,2.64,2.07,3.15,2.38,3.48C2.53,3.64,2.74,3.73,2.97,3.73L2.97,3.73z"/>
</g>
</svg>
