<?xml version="1.0" encoding="utf-8"?>
<!-- Generator: Adobe Illustrator 24.2.0, SVG Export Plug-In . SVG Version: 6.00 Build 0)  -->
<svg version="1.1" id="Laag_1" xmlns="http://www.w3.org/2000/svg" xmlns:xlink="http://www.w3.org/1999/xlink" x="0px" y="0px"
	 viewBox="0 0 19.08 19.08" style="enable-background:new 0 0 19.08 19.08;" xml:space="preserve">
<style type="text/css">
	.st0{fill:#AE9A64;}
</style>
<g>
	<path class="st0" d="M16.25,0H2.83C1.27,0,0,1.27,0,2.83v13.42c0,1.56,1.27,2.83,2.83,2.83h13.42c1.56,0,2.83-1.27,2.83-2.83V2.83
		C19.07,1.27,17.81,0,16.25,0z M17.49,16.25c0,0.68-0.56,1.24-1.24,1.24H2.83c-0.68,0-1.24-0.56-1.24-1.24V2.83
		c0-0.68,0.56-1.24,1.24-1.24l0,0h13.42c0.68,0,1.24,0.56,1.24,1.24V16.25z"/>
	<path class="st0" d="M9.54,4.77c-2.63,0-4.77,2.14-4.77,4.77s2.14,4.77,4.77,4.77s4.77-2.14,4.77-4.77S12.17,4.77,9.54,4.77z
		 M9.54,12.72c-1.76,0-3.18-1.42-3.18-3.18s1.42-3.18,3.18-3.18s3.18,1.42,3.18,3.18S11.29,12.72,9.54,12.72z"/>
	<circle class="st0" cx="14.71" cy="4.37" r="1.19"/>
</g>
</svg>
