<?xml version="1.0" encoding="utf-8"?>
<!-- Generator: Adobe Illustrator 24.2.0, SVG Export Plug-In . SVG Version: 6.00 Build 0)  -->
<svg version="1.1" id="Laag_1" xmlns="http://www.w3.org/2000/svg" xmlns:xlink="http://www.w3.org/1999/xlink" x="0px" y="0px"
	 viewBox="0 0 33.26 33.52" style="enable-background:new 0 0 33.26 33.52;" xml:space="preserve">
<style type="text/css">
	.st0{fill:#BB3A2A;}
</style>
<g>
	<path class="st0" d="M22.63,12.52l-3.14-0.46l-1.41-2.85c-0.12-0.24-0.41-0.35-0.65-0.22c-0.1,0.05-0.18,0.13-0.22,0.22l-1.41,2.85
		l-3.14,0.46c-0.27,0.05-0.45,0.3-0.4,0.56c0.01,0.1,0.06,0.18,0.12,0.25l2.28,2.22l-0.54,3.17c-0.03,0.19,0.04,0.38,0.2,0.49
		c0.15,0.11,0.35,0.12,0.52,0.03l2.81-1.5l2.81,1.47c0.07,0.04,0.15,0.06,0.22,0.06c0.1,0.01,0.2-0.01,0.29-0.06
		c0.16-0.11,0.23-0.3,0.2-0.49l-0.54-3.13l2.28-2.25c0.2-0.19,0.2-0.5,0.01-0.69c-0.07-0.08-0.18-0.13-0.29-0.14L22.63,12.52
		L22.63,12.52z M19.77,15.05c-0.12,0.12-0.17,0.28-0.14,0.44l0.41,2.41l-2.16-1.13c-0.14-0.07-0.32-0.07-0.46,0l-2.16,1.14
		l0.43-2.41c0.03-0.16-0.03-0.33-0.14-0.44l-1.77-1.71l2.4-0.34c0.16-0.02,0.29-0.12,0.37-0.27l1.1-2.2l1.08,2.2
		c0.07,0.14,0.21,0.24,0.37,0.27l2.42,0.34L19.77,15.05z M17.64,5.69c-4.91,0-8.88,3.98-8.88,8.88s3.98,8.88,8.88,8.88
		s8.88-3.98,8.88-8.88S22.55,5.7,17.64,5.69z M17.64,22.47c-4.36,0-7.9-3.53-7.9-7.9s3.53-7.9,7.9-7.9s7.9,3.53,7.9,7.9
		c0,0,0,0,0,0.01C25.54,18.93,22.01,22.46,17.64,22.47z M32.56,24.66l-4.63-4.62v-0.04l-0.2-2.2l1.44-1.68c0.8-0.92,0.8-2.28,0-3.2
		l-1.47-1.67l0.18-2.2c0.09-1.21-0.73-2.3-1.9-2.56l-2.15-0.49l-1.14-1.91c-0.63-1.04-1.93-1.45-3.05-0.98l-2.04,0.88l-2.04-0.85
		c-1.12-0.46-2.41-0.03-3.04,1.01l-1.14,1.9L9.22,6.55c-1.18,0.29-1.97,1.39-1.86,2.6l0.2,2.2l-1.45,1.68c-0.8,0.92-0.8,2.28,0,3.2
		l1.47,1.67l-0.16,2.07l-4.68,4.69c-0.19,0.19-0.19,0.5,0,0.69c0.1,0.1,0.22,0.14,0.35,0.14l0,0l5.66-0.06l-0.06,5.66
		c0,0.2,0.12,0.38,0.3,0.46c0.06,0.03,0.12,0.04,0.19,0.04c0.13,0,0.25-0.05,0.34-0.15l3.55-3.55c0.19-0.19,0.19-0.5,0-0.69
		c-0.19-0.19-0.5-0.19-0.69,0l-2.71,2.7l0.06-4.96c0-0.13-0.05-0.26-0.15-0.35c-0.09-0.1-0.22-0.15-0.35-0.14l-4.96,0.05l3.32-3.33
		c0.29,0.76,0.94,1.33,1.73,1.52l2.16,0.49l1.14,1.92c0.46,0.71,1.24,1.15,2.09,1.14c0.33,0.01,0.67-0.06,0.98-0.19l2.04-0.86
		l2.04,0.84c1.11,0.47,2.41,0.05,3.04-0.98l1.11-1.9l2.15-0.52c0.74-0.18,1.35-0.69,1.66-1.39l3.29,3.3l-4.96-0.07
		c-0.13-0.01-0.26,0.04-0.35,0.14c-0.1,0.1-0.15,0.22-0.15,0.35l0.06,4.96l-2.71-2.7c-0.19-0.19-0.5-0.19-0.69,0s-0.19,0.5,0,0.69
		l3.55,3.55c0.09,0.1,0.21,0.14,0.34,0.15c0.07,0,0.13-0.01,0.19-0.04c0.18-0.07,0.3-0.26,0.3-0.46l-0.06-5.66l5.66,0.06
		c0.2,0,0.38-0.12,0.46-0.31C32.74,25.01,32.7,24.8,32.56,24.66z M25.84,21.66l-2.35,0.56c-0.13,0.03-0.24,0.11-0.31,0.22
		l-1.24,2.07c-0.37,0.63-1.15,0.89-1.83,0.6l-2.23-0.92c-0.12-0.05-0.26-0.05-0.37,0l-2.22,0.94c-0.67,0.29-1.45,0.04-1.83-0.58
		L12.2,22.5c-0.07-0.11-0.18-0.19-0.31-0.22l-2.35-0.54c-0.71-0.16-1.19-0.82-1.14-1.54l0.18-2.41c0.01-0.13-0.03-0.26-0.12-0.36
		L6.89,15.6c-0.48-0.55-0.48-1.37,0-1.92l1.57-1.84c0.09-0.1,0.13-0.23,0.12-0.36L8.36,9.08C8.3,8.35,8.77,7.69,9.48,7.52l2.35-0.56
		c0.13-0.03,0.24-0.11,0.31-0.22l1.24-2.07c0.37-0.63,1.16-0.89,1.84-0.6l2.21,0.93c0.12,0.05,0.26,0.05,0.37,0l2.22-0.93
		c0.67-0.29,1.45-0.04,1.83,0.58l1.26,2.06c0.07,0.11,0.18,0.19,0.31,0.22l2.35,0.54c0.71,0.16,1.2,0.82,1.14,1.55l-0.18,2.39
		c-0.01,0.13,0.03,0.27,0.12,0.36l1.58,1.81c0.48,0.55,0.48,1.37,0,1.92l-1.57,1.84c-0.09,0.1-0.13,0.22-0.12,0.36l0.22,2.41
		C27.02,20.81,26.56,21.48,25.84,21.66z"/>
</g>
</svg>
