<?xml version="1.0" encoding="utf-8"?>
<!-- Generator: Adobe Illustrator 24.2.0, SVG Export Plug-In . SVG Version: 6.00 Build 0)  -->
<svg version="1.1" id="Laag_1" xmlns="http://www.w3.org/2000/svg" xmlns:xlink="http://www.w3.org/1999/xlink" x="0px" y="0px"
	 viewBox="0 0 9 11.61" style="enable-background:new 0 0 9 11.61;" xml:space="preserve">
<style type="text/css">
	.st0{fill:#BB3A2A;stroke:#BB3A2A;stroke-width:0.15;stroke-miterlimit:10;}
</style>
<g>
	<path class="st0" d="M3.72,9.37c0.25,0.43,0.8,0.58,1.23,0.33c0.14-0.08,0.25-0.19,0.33-0.33L7.58,5.4c0.64-1.1,0.64-2.45,0-3.55
		c-0.98-1.7-3.15-2.28-4.85-1.3c-0.54,0.31-0.99,0.76-1.3,1.3c-0.64,1.1-0.64,2.45,0,3.55L3.72,9.37z M1.9,2.12
		C2.72,0.68,4.56,0.19,6,1.02c0.46,0.26,0.84,0.65,1.11,1.11c0.54,0.93,0.54,2.08,0,3.01L4.82,9.1C4.71,9.28,4.48,9.33,4.31,9.22
		C4.26,9.19,4.22,9.15,4.19,9.1L1.9,5.13C1.35,4.2,1.35,3.05,1.9,2.12z"/>
	<path class="st0" d="M4.5,5.79c1.2,0,2.16-0.97,2.17-2.16c0-1.2-0.97-2.16-2.16-2.17c-1.2,0-2.16,0.97-2.17,2.16c0,0,0,0,0,0
		C2.34,4.82,3.31,5.78,4.5,5.79z M4.5,2c0.9,0,1.63,0.72,1.63,1.62S5.41,5.24,4.52,5.25S2.89,4.53,2.89,3.63c0,0,0,0,0-0.01
		C2.89,2.73,3.61,2,4.5,2z"/>
	<path class="st0" d="M7.14,7.93C7,7.89,6.85,7.97,6.81,8.12C6.77,8.26,6.86,8.41,7,8.45c0.01,0,0.01,0,0.02,0.01
		c0.87,0.2,1.41,0.65,1.36,1.13C8.31,10.26,7.06,10.98,4.5,11S0.7,10.26,0.63,9.58C0.57,9.1,1.12,8.65,1.98,8.45
		C2.13,8.43,2.23,8.28,2.2,8.14C2.17,7.99,2.03,7.89,1.89,7.92c-0.01,0-0.01,0-0.02,0.01C0.7,8.19,0,8.86,0.08,9.64
		c0.1,0.85,1.3,1.86,4.35,1.89h0.15c3.05-0.04,4.25-1.04,4.34-1.89C9.01,8.86,8.31,8.19,7.14,7.93z"/>
</g>
</svg>
