<?xml version="1.0" encoding="utf-8"?>
<!-- Generator: Adobe Illustrator 24.2.0, SVG Export Plug-In . SVG Version: 6.00 Build 0)  -->
<svg version="1.1" id="Laag_1" xmlns="http://www.w3.org/2000/svg" xmlns:xlink="http://www.w3.org/1999/xlink" x="0px" y="0px"
	 viewBox="0 0 2303.15 1697.75" style="enable-background:new 0 0 2303.15 1697.75;" xml:space="preserve">
<style type="text/css">
	.st0{fill:#1D1D1B;stroke:#000000;stroke-miterlimit:10;}
	.st1{fill:#AE9A64;}
	.st2{fill:#1D1D1B;}
</style>
<path class="st0" d="M1503.99,593.18c0,0,67.71,128.08,63.28,223.34l58.12,53.88l53.87,70.71l9.55,77.42L1597,1187.41l-113.93,68.42
	l-135.25,51.48L1184.9,1328l-165.48-52.62l-60.6-104.32l-43.7-628.71l338.87-52.78h162.24l81.2,82.83"/>
<g id="Raster">
</g>
<g id="Shirt_pocket">
</g>
<g id="Monkey">
	<g>
		<g>
			<g>
				<g>
					<path class="st1" d="M1429.64,1200.34c-85.9,0-149.18-40.42-152.35-42.49c-5.29-3.44-6.78-10.52-3.34-15.81
						c3.44-5.29,10.52-6.78,15.81-3.35c1.37,0.88,87.91,55.62,191.12,33.38c73.57-15.85,138.21-66.35,192.13-150.12
						c3.42-5.31,10.49-6.84,15.8-3.42c5.3,3.41,6.84,10.49,3.42,15.79c-57.4,89.18-127,143.06-206.85,160.16
						C1466.06,1198.62,1447.36,1200.34,1429.64,1200.34z"/>
				</g>
				<g>
					<g>
						<g>
							<path class="st1" d="M643.2,504.93c-17.91-7.38-25.75-6.26-38.64,7.93c-23.74,26.15-37.08,57.2-42.33,92.07
								c-4.84,32.2-5.09,65.17-14.07,96.61c-9.67,33.88-26.82,62.6-61.71,76.79c-5.78,2.35-10.01,6.71-14.06,12.12
								c-34.23,45.68-74.26,83.93-131.56,99.27c-29.73,7.95-60.04,11.05-90.61,10.15c-15.55-0.46-30.21-8.04-46.08-8.34
								c-1.93-0.04-3.81-2.21-5.72-3.39c2.03-2.31,4.49-3.69,7.6-4.13c25.94-3.68,49.04-14.91,70.05-29.56
								c44.59-31.09,63.2-77.25,69.7-128.99c6.45-51.41,9.87-103.24,17.26-154.5c16.03-111.14,85.16-174.45,189.41-199.88
								c11.83-2.88,24.46-2.48,36.55-4.45c-69.55-12.54-132.8,0.72-187.49,47.16c-53.7,45.61-79.22,104.92-83.24,174.37
								c-0.43,7.36-1.08,14.71-1.52,22.07c-0.27,4.46,1.17,9.88-5.67,10.58c-7.12,0.73-6.32-4.7-6.97-9.23
								c-9.21-64.17,6.55-122.42,45.44-173.32c54.39-71.16,128.06-102.81,216.94-94.91c58.26,5.18,104.42,31.8,129.44,87.77
								c-12.92,11.36-24.85,23.37-34.48,37.97C653.92,480.49,651.55,494.18,643.2,504.93z M544.63,588.22
								c-18.77,47.92-20.57,100.2-40.01,147.82C538.29,692.24,533.9,638.1,544.63,588.22z"/>
						</g>
						<g>
							<path class="st1" d="M681.15,592.46l-2.76-0.11c-18.15-1.35-34.72-22.1-39.66-40.56c-3.4-12.72-3.01-25.18-2.63-37.23
								c0.1-3.23,0.2-6.45,0.23-9.69l0.02-2.32l1.42-1.83c3.95-5.09,6.48-11.18,9.15-17.63c2.44-5.9,4.97-11.99,8.78-17.77
								c11.11-16.85,24.9-29.88,35.68-39.35l2.33-2.05l3.07,0.4c2.15,0.29,3.78,0.06,5.44-0.74c37.9-18.19,74.28-11.93,102.45,17.61
								l4.44,4.66l-4.37,4.73c-5.47,5.92-11.7,10.65-17.73,15.23c-4.24,3.22-8.24,6.26-11.98,9.67
								c-39.36,35.93-68.14,72.4-87.96,111.49c-1.12,2.21-2.91,3.31-3.87,3.9L681.15,592.46z M674.86,580.76
								C674.86,580.76,674.86,580.77,674.86,580.76C674.86,580.77,674.86,580.76,674.86,580.76z M650.02,507.23
								c-0.04,2.59-0.13,5.18-0.21,7.76c-0.37,11.56-0.71,22.48,2.17,33.25c3.58,13.38,14.72,26.69,24.28,29.78
								c20.53-39.56,49.85-76.45,89.54-112.68c4.19-3.82,8.63-7.2,12.92-10.46c3.93-2.98,7.71-5.85,11.18-8.95
								c-23.01-20.78-51.79-24.37-81.75-9.99c-3.1,1.49-6.42,2.3-9.84,2.2c-13.91,12.43-23.58,23.22-31.17,34.72
								c-3.08,4.68-5.25,9.92-7.55,15.46C656.98,494.67,654.28,501.19,650.02,507.23z"/>
						</g>
						<g>
							<path class="st1" d="M1462.45,916.85c-9.62,0.36-19.35,0.3-26.99-6.7c-4.61-4.23-8.04-8.63-5.77-16.33
								c2.4-8.16,8.04-11.94,14.71-11.84c13.87,0.22,26.82,4.29,35.73,16.24c3,4.03,7.03,8.56,4.88,13.49
								c-2.1,4.82-7.86,5.22-12.95,5.14C1468.86,916.81,1465.66,916.85,1462.45,916.85z"/>
						</g>
						<g>
							<path class="st1" d="M1519.21,865.06c-1.83-9.37,0.48-16.23,11.06-16.14c10.88,0.09,11.15,8.31,11.3,16.44
								c0.19,9.65-1.94,18.04-10.28,24.08c-5.04,3.65-8.92,3.69-9.4-3.22C1521.39,878.97,1516.79,872.34,1519.21,865.06z"/>
						</g>
						<g>
							<path class="st1" d="M1039.77,1295.87l0.01,0.04l0.13,0.02C1039.87,1295.91,1039.82,1295.89,1039.77,1295.87z"/>
						</g>
						<g>
							<path class="st1" d="M1197.28,611.26c19.44,6.28,37.69,15.39,57.22,21.24c35.54,10.64,59.46,2.73,74.35-26.54"/>
						</g>
						<g>
							<path class="st1" d="M1523.49,1165.15c0,0,15.53-88.81,51.72-95.29c36.19-6.48,41.05-4.86,41.05-4.86s3.72-24.54,14.59-32.26
								c20.79-14.75,46.27-7.04,46.27-7.04c-0.94,5.68-1.44,11.13-3.67,16.49c-2.19,5.27-5.05,10.23-8.12,15.03
								c-5.72,8.95-12.22,17.43-19.66,25.02c-6.24,6.36-13.26,11.83-20.31,17.25c-11.5,8.86-23.17,27.38-36.27,33.71
								c-16.86,8.15-52.85,34.92-71.32,37.8C1513.17,1171.73,1528.13,1164.69,1523.49,1165.15z"/>
						</g>
						<g>
							<path class="st1" d="M1523.49,1140.75"/>
						</g>
						<g>
							<path class="st1" d="M1679.26,1023.69"/>
						</g>
						<g>
							<g>
								<path class="st1" d="M1576.7,1181.54c-1.16,1.19-2.38,2.33-3.66,3.39c-36.81,30.85-78.32,53.97-122.19,73.19
									c-52.45,22.98-107.32,37.24-164.03,43.76c-50.54,5.81-100.97,1.75-150.65-8.4c-16.65-3.4-34.43-4.21-49.48-14.11
									c-34.73-22.84-58.8-53.7-68.31-94.34c-9.56-40.87-5.56-79.72,20.55-114.86c16.16-21.75,37.64-35.58,61.93-46.79
									c3.2-1.47,4.19-5.64,1.8-8.23c-0.09-0.1-0.18-0.2-0.28-0.3c-23.98-24.84-44.47-52.85-59.88-83.75
									c-30-60.14-55.73-122.03-41-187.92c11.12-49.76,41.44-85.6,82.86-113.29c34.83-23.28,71.56-31.99,112.91-18.64
									c19.44,6.28,37.69,15.39,57.22,21.24c35.54,10.64,59.46,2.73,74.35-26.54c6.98-13.72,10.4-28.88,12.53-44.29
									c5.07-36.72,45.03-62.85,81.66-55.84c21.05,4.03,35.71,29.42,48.57,45.55c3.58,4.49,9.31,11.9,12.8,16.46
									c11.09,14.52,9.73,12.14,19.59,25.35c0.16,0.21,0.32,0.48,0.45,0.71c5.76,10.86-2.06-11.76-7-21.5
									c-11.54-22.25-19.22-34.94-31.39-51.33c-82.17-110.6-194.34-165.15-329.67-175.06c-44.13-3.23-88,1.72-131.57,10.49
									c-74.8,15.05-143.16,44.12-204.73,89.16c-0.24,0.18-0.46,0.38-0.67,0.59c-8.65,9.23-19.63,15.62-28.98,24.16
									c-36.14,32.99-67.23,69.64-89.46,113.45c-0.36,0.71-1.37,1.1-2.07,1.64c-0.46,7-6,11.54-8.54,17.58
									c-21.46,50.86-34.53,103.41-34.58,158.99c-0.02,25.38,1.44,50.77,5.35,75.6c3.72,23.68,13.03,46.37,23.78,68.1
									c1.28,2.59,4,5.65-0.68,7.61c-13.2,5.52-19.87,17.41-28.11,27.95c-25.97,33.19-28.07,72.25-22.03,110.58
									c5,31.75,20.31,61.07,39.69,87.62c17.32,23.72,38.4,44.16,62.98,58.88c26.29,15.75,55.47,25.73,87.22,28.96
									c27.6,2.81,53.52,1.3,78.85-9.31c4.2-1.76,9.02-1.27,12.88,1.14c22.68,14.16,45.04,28.92,68.34,41.98
									c121.37,68.04,272.48,86.38,406.68,52.24c108.31-27.55,201.78-79.71,275.11-164.96c32.17-37.39,54.82-80.41,58.35-130.43
									c4.74-67.16-20.4-122.22-72.86-164.76c-48.15-39.05-102.35-54.91-163.97-44.57c-74.72,12.55-128.3,55.54-168.8,117.05
									c-3.58,5.43-9.4,11.87-6.92,21.5c2.24-1.82,3.93-2.64,4.82-3.99c22.84-34.69,51.75-63.01,87.48-84.41
									c67.1-40.18,146.41-43.57,213.3,0.42c62.78,41.29,93.07,112.96,77.32,180.1c-0.38,0.86-0.52,1.21-0.73,2.1
									c-1.95,3.59-3.78,7.93-5.64,12.71c-9.9,25.45-23.64,49.24-41.1,70.24l-30.72,36.97c-0.09,0.11-0.19,0.21-0.29,0.32
									L1576.7,1181.54z M901.79,1185.41c-29.75,22.66-63.12,26.09-99.37,19.96c-41.65-7.05-78.64-22.42-107.12-54.49
									c-27.08-30.49-51.32-62.96-59.5-104.15c-10.93-55.02,21.61-117.43,71.95-131.14c18.15-4.94,36.24-3.19,54,1.27
									c30.12,7.56,59.59,16.65,83.27,38.54c11.67,10.79,20.21,25.3,22.92,40.07c0.79,4.3-3.88,7.61-7.69,5.46
									c-22.6-12.71-46.81-21.32-71.64-27.12c-42.61-9.94-68.66,9.49-70.87,50.65c-0.31,5.67,0.79,10.8,3.62,15.77
									c2.64,4.64,9.72,2.99,9.85-2.36c0.03-1.24,0.09-2.45,0.21-3.66c3.46-36.54,14.6-47.34,51.57-38.6
									c24.68,5.84,48.27,15.55,71.64,25.57c5,2.14,7.92,3.77,7.24,9.41c-4.36,36.39,12.56,64.3,35.68,89.82
									c6.14,6.77,10.33,14.86,14.22,23C918.71,1157.99,914.64,1175.62,901.79,1185.41z"/>
							</g>
						</g>
					</g>
					<g>
						<path class="st1" d="M880.9,1307.3c-6.75,0-15.61-2.56-25.95-11.48c-10.27-8.86-19.76-22.24-26.74-37.67
							c-5.47-12.09-8.99-24.53-10.18-35.97c-0.66-6.28,3.9-11.9,10.18-12.55c6.26-0.69,11.9,3.9,12.55,10.18
							c0.94,9.03,3.8,19.03,8.28,28.92c5.56,12.29,13.16,23.15,20.85,29.78c6.4,5.53,10.75,6.29,11.87,5.79
							c1.1-0.5,3.41-4.27,3.49-12.74c0.1-10.16-3.04-23.04-8.6-35.33c-12.41-27.43-29.16-37.17-32.72-35.58
							c-5.76,2.6-12.52,0.05-15.12-5.7s-0.05-12.52,5.7-15.12c20.07-9.07,46.54,10.68,62.96,46.98
							c6.98,15.43,10.75,31.4,10.63,44.96c-0.21,22.45-10.69,30.53-16.92,33.35C888.72,1306.24,885.24,1307.3,880.9,1307.3z"/>
					</g>
				</g>
			</g>
		</g>
	</g>
</g>
<g id="Text">
</g>
<path class="st2" d="M901.79,1185.41c-29.75,22.66-63.12,26.09-99.37,19.96c-41.65-7.05-78.64-22.42-107.12-54.49
	c-27.08-30.49-51.32-62.96-59.5-104.15c-10.93-55.02,21.61-117.43,71.95-131.14c18.15-4.94,36.24-3.19,54,1.27
	c30.12,7.56,59.59,16.65,83.27,38.54c11.67,10.79,20.21,25.3,22.92,40.07c0.79,4.3-3.88,7.61-7.69,5.46
	c-22.6-12.71-46.81-21.32-71.64-27.12c-42.61-9.94-68.66,9.49-70.87,50.65c-0.31,5.67,0.79,10.8,3.62,15.77
	c2.64,4.64,9.72,2.99,9.85-2.36c0.03-1.24,0.09-2.45,0.21-3.66c3.46-36.54,14.6-47.34,51.57-38.6
	c24.68,5.84,48.27,15.55,71.64,25.57c5,2.14,7.92,3.77,7.24,9.41c-4.36,36.39,12.56,64.3,35.68,89.82
	c6.14,6.77,10.33,14.86,14.22,23C918.71,1157.99,914.64,1175.62,901.79,1185.41z"/>
</svg>
