<?xml version="1.0" encoding="utf-8"?>
<!-- Generator: Adobe Illustrator 24.2.0, SVG Export Plug-In . SVG Version: 6.00 Build 0)  -->
<svg version="1.1" id="Laag_1" xmlns="http://www.w3.org/2000/svg" xmlns:xlink="http://www.w3.org/1999/xlink" x="0px" y="0px"
	 viewBox="0 0 9 11.61" style="enable-background:new 0 0 9 11.61;" xml:space="preserve">
<style type="text/css">
	.st0{fill:#BB3A2A;}
</style>
<g>
	<path class="st0" d="M4.16,10.08c-0.54-0.01-1.07-0.1-1.57-0.29C1.64,9.41,0.86,8.69,0.42,7.77C0.13,7.15,0,6.47,0,5.79
		c0-2.83,1.96-5.27,5.01-5.27C7.4,0.52,9,2.19,9,4.48c0,2.06-1.15,3.27-2.44,3.27c-0.31,0-0.6-0.13-0.8-0.37
		C5.62,7.2,5.54,6.96,5.54,6.73c0-0.03,0-0.06,0.01-0.09c0-0.02,0-0.04,0-0.05C5.53,6.55,5.48,6.54,5.46,6.57
		C5.42,6.61,5.4,6.67,5.37,6.71c-0.03,0.05-0.07,0.1-0.1,0.15C5.2,6.97,5.12,7.06,5.03,7.14c-0.28,0.27-0.62,0.47-1,0.56
		C3.88,7.73,3.72,7.75,3.55,7.75c-0.8,0-1.48-0.65-1.48-1.73c0-1.7,1.34-3.25,3.25-3.25c0.59,0,1.11,0.12,1.47,0.29L6.33,5.54
		C6.12,6.58,6.28,7.06,6.74,7.08c0.7,0.01,1.48-0.92,1.48-2.51c0-1.99-1.19-3.42-3.32-3.42c-2.24,0-4.12,1.77-4.12,4.56
		c0,2.29,1.5,3.71,3.53,3.71c0.33,0,0.68-0.02,1-0.1c0.33-0.08,0.64-0.23,0.97-0.34C6.4,8.93,6.53,8.9,6.64,8.96
		C6.76,9.03,6.8,9.2,6.74,9.33C6.67,9.51,6.49,9.59,6.33,9.66C5.65,9.94,4.9,10.09,4.16,10.08z M5.85,3.59
		c-0.14-0.04-0.37-0.1-0.69-0.1c-1.21,0-2.18,1.14-2.18,2.47c0,0.6,0.3,1.04,0.91,1.04c0.8,0,1.52-1.02,1.67-1.87L5.85,3.59z"/>
</g>
</svg>
