<?xml version="1.0" encoding="utf-8"?>
<!-- Generator: Adobe Illustrator 24.2.0, SVG Export Plug-In . SVG Version: 6.00 Build 0)  -->
<svg version="1.1" id="Laag_1" xmlns="http://www.w3.org/2000/svg" xmlns:xlink="http://www.w3.org/1999/xlink" x="0px" y="0px"
	 viewBox="0 0 9 11.61" style="enable-background:new 0 0 9 11.61;" xml:space="preserve">
<style type="text/css">
	.st0{fill:#BB3A2A;stroke:#BB3A2A;stroke-width:0.15;stroke-miterlimit:10;}
</style>
<g>
	<g transform="translate(0,-972.36218)">
		<path class="st0" d="M4.5,973.07c-2.48,0-4.5,2.02-4.5,4.5c0,2.48,2.02,4.5,4.5,4.5c2.48,0,4.5-2.02,4.5-4.5
			C9,975.09,6.98,973.07,4.5,973.07z M4.5,973.6c2.2,0,3.97,1.77,3.97,3.97c0,2.2-1.77,3.97-3.97,3.97c-2.2,0-3.97-1.77-3.97-3.97
			C0.53,975.38,2.3,973.6,4.5,973.6z M4.5,974.66c-0.15,0-0.26,0.12-0.26,0.26v2.65c0,0.07,0.03,0.14,0.07,0.19L6,979.45
			c0.1,0.1,0.27,0.1,0.37,0c0.1-0.1,0.1-0.27,0-0.37l-1.61-1.61v-2.53C4.77,974.78,4.65,974.66,4.5,974.66z"/>
	</g>
</g>
</svg>
