<?xml version="1.0" encoding="utf-8"?>
<!-- Generator: Adobe Illustrator 24.2.0, SVG Export Plug-In . SVG Version: 6.00 Build 0)  -->
<svg version="1.1" id="Laag_1" xmlns="http://www.w3.org/2000/svg" xmlns:xlink="http://www.w3.org/1999/xlink" x="0px" y="0px"
	 viewBox="0 0 33.26 33.52" style="enable-background:new 0 0 33.26 33.52;" xml:space="preserve">
<style type="text/css">
	.st0{fill:none;}
	.st1{fill:#BB3A2A;}
</style>
<g>
	<path class="st0" d="M14.1,13.5c0.08,0.09,0.15,0.2,0.22,0.3v-0.38c0-0.05,0.01-0.09,0.03-0.14l0.01-0.02l0.83-2.29
		c0.03-0.08,0.09-0.15,0.18-0.19c0.04-0.02,0.09-0.03,0.14-0.03c0.04,0,0.08,0.01,0.12,0.02c0.1,0.04,0.17,0.12,0.2,0.22l0.82,2.32
		c0.01,0.04,0.02,0.07,0.02,0.11v0.39c0.07-0.11,0.14-0.22,0.23-0.31c0.31-0.39,0.7-0.7,1.16-0.93c-0.55-0.23-1.05-0.62-1.44-1.12
		c-0.53-0.68-0.83-1.49-0.83-2.28c0-0.2,0.02-0.41,0.06-0.62c0.11-0.69,0.48-1.33,1.03-1.79c0.55-0.46,1.26-0.71,1.99-0.71
		c0.73,0,1.42,0.28,1.94,0.77c0.52,0.5,0.81,1.16,0.81,1.87c0,0.71-0.29,1.37-0.81,1.87c-0.52,0.5-1.2,0.77-1.94,0.77
		c-0.19,0-0.34-0.15-0.34-0.34s0.15-0.34,0.34-0.34c0.55,0,1.08-0.2,1.46-0.58c0.39-0.37,0.6-0.86,0.6-1.38
		c0-0.52-0.22-1.01-0.6-1.38c-0.39-0.37-0.91-0.58-1.46-0.58c-0.57,0-1.12,0.2-1.55,0.55c-0.42,0.35-0.71,0.84-0.79,1.38
		c-0.03,0.17-0.05,0.34-0.05,0.5c0,0.65,0.24,1.31,0.68,1.86c0.44,0.56,1.02,0.93,1.63,1.06c0.15,0.03,0.3,0.04,0.45,0.04
		c0.93,0,1.73-0.33,2.32-0.95c0.6-0.63,0.93-1.51,0.93-2.49c0-0.92-0.37-1.79-1.05-2.44c-0.68-0.66-1.59-1.02-2.56-1.02
		c-0.27,0-0.53,0.02-0.79,0.07C18.04,5.32,18,5.33,17.97,5.33c-0.3,0.06-0.6,0.16-0.88,0.29c-0.52,0.24-0.96,0.6-1.27,1.03
		c-0.06,0.07-0.13,0.12-0.22,0.14c-0.09,0.02-0.18-0.01-0.25-0.06c-0.03-0.02-0.06-0.05-0.08-0.08c-0.31-0.43-0.75-0.78-1.27-1.03
		c-0.52-0.24-1.14-0.37-1.76-0.37c-0.97,0-1.88,0.36-2.56,1.01C8.99,6.92,8.62,7.78,8.62,8.7c0,0.98,0.33,1.86,0.93,2.49
		c0.59,0.62,1.4,0.95,2.32,0.95c0.15,0,0.3-0.02,0.45-0.04c0.61-0.13,1.19-0.5,1.63-1.06c0.44-0.56,0.68-1.22,0.68-1.86
		c0-0.17-0.02-0.33-0.05-0.49c-0.09-0.56-0.37-1.05-0.79-1.4c-0.43-0.35-0.98-0.55-1.55-0.55c-0.55,0-1.08,0.2-1.46,0.58
		c-0.39,0.37-0.6,0.86-0.6,1.38c0,0.52,0.22,1.01,0.6,1.38c0.39,0.37,0.91,0.58,1.46,0.58c0.19,0,0.34,0.15,0.34,0.34
		c0,0.19-0.15,0.34-0.34,0.34c-0.73,0-1.42-0.28-1.94-0.77c-0.52-0.5-0.81-1.16-0.81-1.87c0-0.71,0.29-1.37,0.81-1.87
		c0.52-0.5,1.2-0.77,1.94-0.77c0.73,0,1.43,0.25,1.99,0.71c0.55,0.46,0.92,1.09,1.03,1.79c0.04,0.2,0.06,0.41,0.06,0.62
		c0,0.8-0.29,1.61-0.83,2.28c-0.4,0.51-0.92,0.9-1.48,1.14C13.43,12.82,13.81,13.12,14.1,13.5z"/>
	<rect x="16.67" y="25.12" class="st0" width="4.11" height="0.69"/>
	<path class="st0" d="M18.48,27.74l0.77-1.25h-1.49v2.86h1.49l-0.77-1.25C18.41,27.99,18.41,27.85,18.48,27.74z"/>
	<rect x="16.67" y="30.02" class="st0" width="4.11" height="0.69"/>
	<rect x="16.67" y="26.49" class="st0" width="0.41" height="2.86"/>
	<path class="st0" d="M16,31.3V13.48l-0.49-1.38l-0.5,1.38v2.77c0.01,0.09,0.01,0.18,0.01,0.28c0,0.03,0,0.05-0.01,0.07l0.01,14.73
		c0.02,0.15,0.14,0.24,0.21,0.28c0.08,0.04,0.17,0.06,0.25,0.07c0.09,0.01,0.18-0.01,0.26-0.04C15.82,31.6,15.95,31.5,16,31.3z"/>
	<path class="st0" d="M14.41,4.9c0.02,0.07,0.04,0.14,0.08,0.21c0.4,0.22,0.76,0.49,1.05,0.81c0.28-0.3,0.62-0.57,0.99-0.78V5.14
		c0.04-0.08,0.08-0.17,0.1-0.26c0.02-0.09,0.03-0.18,0.03-0.28c0-0.31-0.12-0.6-0.34-0.82c-0.44-0.44-1.19-0.44-1.63,0
		C14.48,4,14.36,4.29,14.36,4.6C14.37,4.7,14.39,4.8,14.41,4.9z"/>
	<path class="st0" d="M15.52,2.09c-0.56,0-1.09,0.25-1.48,0.72C13.62,3.28,13.4,3.92,13.4,4.6c0,0.03,0,0.07,0,0.1
		c0.1,0.02,0.2,0.05,0.3,0.08c-0.01-0.06-0.01-0.12-0.01-0.18c0-0.49,0.19-0.95,0.53-1.3c0.35-0.35,0.81-0.53,1.3-0.53
		c0.49,0,0.95,0.19,1.3,0.53s0.53,0.81,0.53,1.3c0,0.07-0.01,0.13-0.01,0.2c0.1-0.03,0.2-0.06,0.3-0.09c0-0.04,0-0.07,0-0.11
		c0-0.68-0.23-1.32-0.64-1.79C16.61,2.34,16.08,2.09,15.52,2.09z"/>
	<path class="st1" d="M17.42,13.93c0.49-0.61,1.24-0.99,2.21-1.12c0.02-0.01,0.04-0.01,0.04-0.01c0.93-0.09,1.74-0.49,2.36-1.14
		c0.72-0.76,1.11-1.81,1.11-2.96c0-1.11-0.45-2.14-1.26-2.93C21.08,4.99,20,4.56,18.86,4.56c-0.18,0-0.36,0.01-0.53,0.03
		c0-0.84-0.29-1.63-0.81-2.23c-0.53-0.61-1.24-0.95-2-0.95c-0.76,0-1.47,0.34-2,0.95c-0.52,0.6-0.8,1.39-0.81,2.23
		c-0.16-0.02-0.33-0.02-0.49-0.02c-1.15,0-2.22,0.43-3.03,1.21C8.39,6.56,7.95,7.59,7.95,8.7c0,1.15,0.4,2.2,1.11,2.96
		c0.59,0.62,1.37,1.01,2.24,1.12c0.02,0.01,0.04,0.02,0.07,0.02c0.98,0.13,1.72,0.51,2.21,1.12c0.46,0.57,0.71,1.36,0.74,2.34v15.1
		c0.03,0.36,0.24,0.67,0.57,0.84c0.16,0.08,0.35,0.13,0.53,0.14c0.02,0,0.04,0,0.07,0c0.17,0,0.34-0.03,0.49-0.1
		c0.35-0.15,0.59-0.45,0.67-0.83c0.01-0.02,0.01-0.03,0.01-0.04h4.46c0.19,0,0.34-0.15,0.34-0.34v-1.37c0-0.19-0.15-0.34-0.34-0.34
		h-1.08l-0.88-1.43l0.88-1.43h1.08c0.19,0,0.34-0.15,0.34-0.34v-1.37c0-0.19-0.15-0.34-0.34-0.34h-4.46v-7.91
		C16.67,15.43,16.92,14.55,17.42,13.93z M16.67,30.71v-0.69h4.11v0.69H16.67z M16.67,29.35v-2.86h0.41v2.86H16.67z M17.75,29.35
		v-2.86h1.49l-0.77,1.25c-0.07,0.11-0.07,0.25,0,0.36l0.77,1.25H17.75z M16.67,25.81v-0.69h4.11v0.69H16.67z M14.47,11.46
		c0.53-0.68,0.83-1.49,0.83-2.28c0-0.21-0.02-0.42-0.06-0.62c-0.12-0.7-0.48-1.34-1.03-1.79c-0.55-0.46-1.26-0.71-1.99-0.71
		c-0.73,0-1.42,0.28-1.94,0.77C9.78,7.33,9.48,8,9.48,8.71c0,0.71,0.29,1.37,0.81,1.87c0.52,0.5,1.2,0.77,1.94,0.77
		c0.19,0,0.34-0.15,0.34-0.34c0-0.19-0.15-0.34-0.34-0.34c-0.55,0-1.08-0.2-1.46-0.58c-0.39-0.37-0.6-0.86-0.6-1.38
		c0-0.52,0.22-1.01,0.6-1.38c0.39-0.37,0.91-0.58,1.46-0.58c0.57,0,1.12,0.2,1.55,0.55c0.42,0.35,0.71,0.84,0.79,1.4
		c0.03,0.15,0.05,0.32,0.05,0.49c0,0.65-0.24,1.31-0.68,1.86c-0.44,0.56-1.02,0.93-1.63,1.06c-0.14,0.03-0.3,0.04-0.45,0.04
		c-0.93,0-1.73-0.33-2.32-0.95c-0.6-0.63-0.93-1.51-0.93-2.49c0-0.92,0.37-1.79,1.05-2.44c0.68-0.67,1.59-1.04,2.56-1.04
		c0.63,0,1.24,0.13,1.76,0.37c0.52,0.24,0.96,0.6,1.27,1.03c0.02,0.03,0.05,0.06,0.08,0.08c0.07,0.06,0.17,0.08,0.25,0.06
		c0.09-0.02,0.17-0.06,0.22-0.14c0.31-0.43,0.76-0.79,1.27-1.03c0.28-0.13,0.58-0.23,0.88-0.29c0.04,0,0.08-0.01,0.09-0.02
		c0.26-0.04,0.53-0.07,0.79-0.07c0.97,0,1.88,0.36,2.56,1.01c0.68,0.65,1.05,1.52,1.05,2.44c0,0.98-0.33,1.86-0.93,2.49
		c-0.59,0.62-1.4,0.95-2.32,0.95c-0.15,0-0.3-0.02-0.45-0.04c-0.61-0.13-1.19-0.5-1.63-1.06s-0.68-1.22-0.68-1.86
		c0-0.17,0.02-0.33,0.05-0.5c0.09-0.54,0.37-1.03,0.79-1.38c0.43-0.35,0.98-0.55,1.55-0.55c0.55,0,1.08,0.2,1.46,0.58
		c0.39,0.37,0.6,0.86,0.6,1.38c0,0.52-0.22,1.01-0.6,1.38c-0.39,0.37-0.91,0.58-1.46,0.58c-0.19,0-0.34,0.15-0.34,0.34
		s0.15,0.34,0.34,0.34c0.73,0,1.42-0.28,1.94-0.77c0.52-0.5,0.81-1.16,0.81-1.87c0-0.71-0.29-1.37-0.81-1.87
		c-0.52-0.5-1.2-0.77-1.94-0.77s-1.43,0.25-1.99,0.71c-0.55,0.46-0.92,1.09-1.03,1.79c-0.04,0.2-0.06,0.41-0.06,0.62
		c0,0.8,0.29,1.61,0.83,2.28c0.39,0.5,0.9,0.89,1.44,1.12c-0.46,0.23-0.85,0.54-1.16,0.93c-0.08,0.1-0.15,0.2-0.23,0.31v-0.39
		c0-0.04-0.01-0.08-0.02-0.11l-0.82-2.32c-0.03-0.1-0.11-0.18-0.2-0.22c-0.04,0.01-0.08,0-0.12,0c-0.05,0-0.1,0.01-0.14,0.03
		c-0.08,0.04-0.14,0.1-0.18,0.19l-0.83,2.29l-0.01,0.02c-0.02,0.04-0.03,0.09-0.03,0.14v0.38c-0.07-0.1-0.14-0.21-0.22-0.3
		c-0.3-0.37-0.67-0.68-1.11-0.9C13.55,12.36,14.07,11.97,14.47,11.46z M17.64,4.72c-0.1,0.03-0.2,0.06-0.3,0.09
		c0.01-0.07,0.01-0.13,0.01-0.2c0-0.49-0.19-0.95-0.53-1.3c-0.35-0.35-0.81-0.53-1.3-0.53c-0.49,0-0.95,0.19-1.3,0.53
		c-0.35,0.35-0.53,0.81-0.53,1.3c0,0.06,0.01,0.12,0.01,0.18c-0.1-0.03-0.2-0.06-0.3-0.08c0-0.03,0-0.07,0-0.1
		c0-0.68,0.23-1.32,0.64-1.79c0.4-0.46,0.93-0.72,1.48-0.72c0.56,0,1.09,0.25,1.48,0.72c0.41,0.47,0.64,1.11,0.64,1.79
		C17.64,4.64,17.64,4.68,17.64,4.72z M16.33,3.79C16.55,4,16.67,4.3,16.67,4.61c0,0.09-0.01,0.19-0.03,0.28
		c-0.02,0.09-0.06,0.18-0.1,0.26v0.01c-0.38,0.21-0.71,0.47-0.99,0.78c-0.3-0.32-0.65-0.6-1.05-0.81c-0.03-0.07-0.06-0.14-0.08-0.21
		c-0.03-0.1-0.04-0.2-0.04-0.3c0-0.31,0.12-0.6,0.34-0.82C15.14,3.35,15.9,3.35,16.33,3.79z M15.47,31.68
		c-0.09-0.01-0.18-0.03-0.25-0.07c-0.07-0.04-0.19-0.13-0.21-0.28L15,16.6C15,16.58,15,16.55,15,16.53c0-0.09,0-0.19-0.01-0.28
		v-2.77l0.5-1.38l0.49,1.38V31.3c-0.04,0.2-0.17,0.3-0.26,0.34C15.65,31.67,15.56,31.68,15.47,31.68z"/>
</g>
</svg>
