<?xml version="1.0" encoding="utf-8"?>
<!-- Generator: Adobe Illustrator 24.2.0, SVG Export Plug-In . SVG Version: 6.00 Build 0)  -->
<svg version="1.1" id="Laag_1" xmlns="http://www.w3.org/2000/svg" xmlns:xlink="http://www.w3.org/1999/xlink" x="0px" y="0px"
	 viewBox="0 0 9 11.61" style="enable-background:new 0 0 9 11.61;" xml:space="preserve">
<style type="text/css">
	.st0{fill:#BB3A2A;stroke:#BB3A2A;stroke-width:0.15;stroke-miterlimit:10;}
</style>
<g>
	<g>
		<path class="st0" d="M8.58,7.9L7.31,7.01C7.14,6.9,6.95,6.83,6.74,6.83c-0.32,0-0.62,0.16-0.8,0.42l-0.3,0.42
			C5.15,7.35,4.6,6.88,4.07,6.36C3.55,5.83,3.08,5.28,2.75,4.78l0.42-0.3c0.22-0.15,0.36-0.37,0.41-0.63
			C3.63,3.6,3.57,3.34,3.42,3.12L2.53,1.85c-0.19-0.27-0.49-0.42-0.8-0.42c-0.11,0-0.22,0.02-0.32,0.06
			c-0.12,0.04-0.22,0.1-0.33,0.16L0.9,1.77C0.86,1.81,0.82,1.84,0.78,1.88C0.57,2.1,0.41,2.37,0.33,2.69
			c-0.37,1.37,0.54,3.45,2.26,5.16c1.44,1.44,3.17,2.33,4.51,2.33c0,0,0,0,0,0c0.23,0,0.45-0.03,0.65-0.08
			c0.32-0.09,0.59-0.24,0.81-0.45c0.04-0.04,0.08-0.08,0.12-0.13l0.12-0.18c0.06-0.1,0.11-0.2,0.16-0.32
			C9.09,8.62,8.94,8.15,8.58,7.9z M8.58,8.88C8.54,8.98,8.5,9.06,8.46,9.13L8.35,9.29C8.32,9.32,8.3,9.34,8.27,9.37
			C8.11,9.54,7.89,9.65,7.64,9.72C7.48,9.77,7.29,9.79,7.1,9.79c-1.24,0-2.87-0.85-4.24-2.22C1.27,5.98,0.38,4.01,0.71,2.79
			c0.07-0.25,0.19-0.46,0.35-0.63C1.08,2.13,1.11,2.1,1.14,2.09L1.3,1.97c0.07-0.05,0.16-0.09,0.25-0.12
			C1.6,1.83,1.67,1.82,1.73,1.82c0.19,0,0.37,0.1,0.48,0.26L3.1,3.35c0.09,0.13,0.12,0.29,0.1,0.44C3.17,3.94,3.08,4.08,2.95,4.17
			l-0.58,0.4C2.29,4.63,2.26,4.75,2.32,4.84c0.35,0.56,0.87,1.2,1.48,1.8c0.6,0.6,1.24,1.13,1.8,1.48C5.68,8.17,5.8,8.14,5.86,8.06
			l0.4-0.58c0.18-0.26,0.56-0.33,0.82-0.15l1.27,0.89C8.57,8.37,8.66,8.65,8.58,8.88z"/>
	</g>
</g>
</svg>
